<?xml version="1.0" encoding="UTF-8" standalone="no"?>
<svg width="512px" height="512px" viewBox="0 0 512 512" version="1.1" xmlns="http://www.w3.org/2000/svg" xmlns:xlink="http://www.w3.org/1999/xlink" xmlns:sketch="http://www.bohemiancoding.com/sketch/ns">
    <!-- Generator: Sketch 3.5.1 (25234) - http://www.bohemiancoding.com/sketch -->
    <title>font-icon</title>
    <desc>Created with Sketch.</desc>
    <defs></defs>
    <g id="Page-1" stroke="none" stroke-width="1" fill="none" fill-rule="evenodd" sketch:type="MSPage">
        <g id="font-icon" sketch:type="MSArtboardGroup" fill="#000000">
            <path d="M541.056435,46.1837806 C532.500422,52.035869 523.945961,57.8724511 515.386845,63.7260901 C505.768311,70.2868177 496.16839,76.8459947 486.563815,83.4067223 C477.733253,89.4355829 469.098133,96.3017852 459.460985,100.997101 C444.793534,108.167228 428.404333,100.578431 429.611109,83.1648236 C430.174168,74.9170074 434.467686,69.1920709 440.386784,65.107704 C427.199108,68.5346026 414.861449,78.390425 406.465202,88.0058994 C393.165844,103.216057 382.259875,121.192544 365.791566,133.330898 C352.489107,143.140201 329.088815,151.950897 319.353946,132.721499 C315.625038,125.355993 316.428521,118.345582 319.547837,111.99574 C312.632915,115.17919 305.714892,118.362639 298.813931,121.530582 C286.704287,127.109759 273.820632,134.617923 260.166066,130.212575 C250.643702,127.157828 244.901432,116.287892 244.434543,106.818177 C244.211181,101.994158 244.98209,97.4275446 246.398269,93.05476 C206.332675,115.661436 156.48723,114.149569 113.302321,129.793904 C61.3830197,148.606182 20.7388559,198.435769 16.0916813,254.067824 C12.7133281,294.426145 26.3834047,336.054435 53.7747449,366.121206 C82.6474109,397.795984 124.126081,414.984749 167.055054,412.975129 C188.640528,411.978072 210.353195,406.817566 229.413435,396.41437 C250.547532,384.885414 267.853449,367.344656 289.342753,356.47627 C307.532812,347.277916 329.906258,341.168422 349.46441,350.092314 C360.691463,355.2032 370.083533,364.192219 374.442198,375.36763 C379.123497,362.03839 375.98712,345.606334 365.257979,336.102505 C350.865078,323.337695 317.439856,325.908644 315.366,300.648835 C314.547005,290.568171 320.06281,281.160481 328.362888,275.598361 C339.057904,268.428235 351.730606,267.687032 363.63395,263.649184 C379.073861,258.426653 392.152959,248.826685 401.800965,236.252603 C391.363436,235.209027 380.97244,227.088363 379.781175,215.029091 C376.713047,184.173048 411.501709,169.156719 431.863345,153.558903 C472.574207,122.381879 507.539697,84.8534628 541.056435,46.1837806 L541.056435,46.1837806 Z" id="Fill-69" sketch:type="MSShapeGroup" transform="translate(278.321368, 229.658681) rotate(-115.000000) translate(-278.321368, -229.658681) "></path>
        </g>
    </g>
</svg>