<?xml version="1.0" encoding="utf-8"?>
<!-- Generated by IcoMoon.io -->
<!DOCTYPE svg PUBLIC "-//W3C//DTD SVG 1.1//EN" "http://www.w3.org/Graphics/SVG/1.1/DTD/svg11.dtd">
<svg version="1.1" xmlns="http://www.w3.org/2000/svg" xmlns:xlink="http://www.w3.org/1999/xlink" width="1024" height="1024" viewBox="0 0 1024 1024"><g id="icomoon-ignore">
</g>
<path d="M902.4 360.686c54.513 45.053 86.429 99.658 86.429 158.507 0 57.239-30.194 110.463-82.007 154.789l113.171 222.576-256.754-142.037c-76.583 28.086-167.761 44.382-265.625 44.382-271.29 0-491.215-125.231-491.215-279.711 0-68.554 43.31-131.347 115.2-179.993v113.017c0 15.54 12.265 28.138 28.715 28.138h723.37c15.859 0 28.715-12.282 28.715-28.138v-91.531z"></path>
<path d="M194.352 0h635.296c14.762 0 27.952 12.921 27.952 28.86v382.134c0 16.17-12.515 28.86-27.952 28.86h-635.296c-14.762 0-27.952-12.921-27.952-28.86v-382.134c0-16.17 12.515-28.86 27.952-28.86zM512 294.4l288-256h-60l-228 139.636-228-139.636h-60l288 256z"></path>
</svg>
