<?xml version="1.0" encoding="utf-8"?>
<!-- Generated by IcoMoon.io -->
<!DOCTYPE svg PUBLIC "-//W3C//DTD SVG 1.1//EN" "http://www.w3.org/Graphics/SVG/1.1/DTD/svg11.dtd">
<svg version="1.1" xmlns="http://www.w3.org/2000/svg" xmlns:xlink="http://www.w3.org/1999/xlink" width="1024" height="1024" viewBox="0 0 1024 1024"><g id="icomoon-ignore">
</g>
<path d="M204.563 1024c-67.62 0-122.643-55.005-122.643-122.858v-798.742c0-56.948 45.71-102.4 102.096-102.4h717.104v40.96h-20.672c-33.514 0-61.248 27.508-61.248 61.44 0 34.169 27.422 61.44 61.248 61.44h20.672v860.16h-614.4v-860.16h512c0 0-20.48-32.339-20.48-62.523s20.48-60.357 20.48-60.357h-614.672c-33.782 0-61.168 27.271-61.168 61.44 0 33.932 27.331 61.44 61.168 61.44h61.712v860.16h-41.197z"></path>
</svg>
