<?xml version="1.0" encoding="UTF-8" standalone="no"?>
<svg width="32px" height="32px" viewBox="0 0 32 32" version="1.1" xmlns="http://www.w3.org/2000/svg" xmlns:xlink="http://www.w3.org/1999/xlink" xmlns:sketch="http://www.bohemiancoding.com/sketch/ns">
    <!-- Generator: Sketch 3.5.1 (25234) - http://www.bohemiancoding.com/sketch -->
    <title>icon-32-bw</title>
    <desc>Created with Sketch.</desc>
    <defs></defs>
    <g id="Page-1" stroke="none" stroke-width="1" fill="none" fill-rule="evenodd" sketch:type="MSPage">
        <g id="icon-32-bw" sketch:type="MSArtboardGroup" fill="#000000">
            <g id="small" sketch:type="MSLayerGroup" transform="translate(0.500000, 2.500000)">
                <path d="M6.74836418,4.98987817 L7.92941915,1.53704501 L11.2074901,1.42257225 L12.689431,4.78241154 L13.7376856,1.33421588 L18.3507493,1.17312415 L15.1052703,12.9141266 L11.7236883,13.3777638 L9.81321705,7.78749789 L8.78925116,13.880628 L5.04446981,14.7439286 L0.1171875,8.8817842e-16 L5.19110823,8.8817842e-16 L6.74836418,4.98987817 Z M24.1604573,8.44327963 L24.2845636,12.0843116 L19.7934743,12.4509125 L19.7934743,1.09900334 C19.7934743,1.09900334 26.2938182,0.761537537 28.1871657,1.46953827 C29.8779567,2.10179476 31.2187216,3.44537718 30.888411,5.33408002 C30.1882186,9.33775208 24.1604573,8.44327963 24.1604573,8.44327963 Z M24.0509894,3.60528319 C24.0509894,3.60528319 27.3917505,3.38003462 27.3917505,4.72448166 C27.3917505,6.0689287 24.0509894,5.66184351 24.0509894,5.66184351 L24.0509894,3.60528319 Z" id="WP" sketch:type="MSShapeGroup"></path>
                <path d="M30.9248295,24.5084162 C31.341989,22.5043385 30.1088516,18.5683251 25.052397,18.239407 C19.9959424,17.9104888 17.3819999,18.2147507 16.889631,17.5098363 C16.3972621,16.8049219 18.5172372,16.333964 22.9166706,15.1817315 C27.316104,14.0294989 30.9248295,13.4800792 30.9248295,13.4800792 L29.6892465,9.55731225 C29.6892465,9.55731225 21.124739,10.5754505 13.6984025,12.3194913 C6.27206604,14.063532 -2.30567548e-09,16.1971186 0,17.5098363 C2.30567553e-09,18.822554 10.1597661,22.9817101 10.1597661,22.9817101 C10.1597661,22.9817101 18.8415357,22.597229 19.3873671,22.9817101 C19.9331986,23.3661912 17.6812447,24.3849742 17.6812447,24.3849742 L15.5908029,25.2575507 L29.6892465,28.0877958 C29.6892465,28.0877958 30.5076699,26.5124938 30.9248295,24.5084162 Z" id="SHARKS" sketch:type="MSShapeGroup"></path>
            </g>
        </g>
    </g>
</svg>