<?xml version="1.0" encoding="utf-8"?>
<!-- Generated by IcoMoon.io -->
<!DOCTYPE svg PUBLIC "-//W3C//DTD SVG 1.1//EN" "http://www.w3.org/Graphics/SVG/1.1/DTD/svg11.dtd">
<svg version="1.1" xmlns="http://www.w3.org/2000/svg" xmlns:xlink="http://www.w3.org/1999/xlink" width="1024" height="1024" viewBox="0 0 1024 1024"><g id="icomoon-ignore">
</g>
<path d="M1006 17.778c26.667 26.667 23.333 61.333-10 104l-94-94c42.667-33.333 77.333-36.667 104-10v0zM580 733.778c-54.667 114.667-76 211.333-64 290-8 1.333-19.333 1-34-1s-49.333-19.333-104-52c-54.667-32.667-114-81-178-145-22.667-22.667-43.333-44.667-62-66s-34.667-41-48-59c-13.333-18-25.333-35.333-36-52s-19-31.333-25-44c-6-12.667-11-24.667-15-36s-7-21-9-29c-2-8-3.333-14.667-4-20s-1-9.333-1-12l2-2v4c78.667 12 175.333-9.333 290-64l-10-10c50.667-50.667 110.666-69.333 180-56l2-4c13.333-13.333 30.333-22.667 51-28s39-2 55 10l306-306 96 96-306 306c13.333 17.333 17.333 35.667 12 55s-15.333 36.333-30 51l-4 2c13.333 69.334-5.333 129.333-56 180l-8-8zM350 889.778c37.334 29.333 74.666 52.667 112 70 2.667-70.667 28.666-156.666 78-258l-216-216c-108.001 49.334-194 75.333-258 78 14.667 34.667 37.333 71.333 68 110l164-134-138 168c10.667 13.333 30 34 58 62l170-140-140 170c30.667 30.667 53.333 52 68 64l168-138-134 164z"></path>
</svg>
