<?xml version="1.0" encoding="utf-8"?>
<!-- Generated by IcoMoon.io -->
<!DOCTYPE svg PUBLIC "-//W3C//DTD SVG 1.1//EN" "http://www.w3.org/Graphics/SVG/1.1/DTD/svg11.dtd">
<svg version="1.1" xmlns="http://www.w3.org/2000/svg" xmlns:xlink="http://www.w3.org/1999/xlink" width="1024" height="1024" viewBox="0 0 1024 1024"><g id="icomoon-ignore">
</g>
<path d="M902.4 360.686c54.513 45.053 86.429 99.658 86.429 158.507 0 57.239-30.194 110.463-82.007 154.789l113.171 222.576-231.486-128.058c-25.013 100.994-177.407 178.685-361.668 178.685-72.771 0-140.571-12.118-197.518-33.003v0l-190.922 105.618 84.153-165.507c-38.528-32.96-60.98-72.537-60.98-115.1 0-24.594 7.496-48.19 21.258-70.090v0c-48.397-43.329-76.432-94.755-76.432-149.91 0-68.554 43.31-131.347 115.2-179.993v113.017c0 15.54 12.265 28.138 28.715 28.138h723.37c15.859 0 28.715-12.282 28.715-28.138v-91.531zM122.531 699.814c-7.034 14.147-10.789 29.036-10.789 44.407 0 34.203 18.594 66.022 50.535 92.577l-41.089 94.983 109.259-54.59c51.857 22.096 116.987 35.251 187.713 35.251 154.379 0 282.093-62.677 303.319-144.208-67.133 19.606-143.23 30.67-223.864 30.67-150.381 0-284.978-38.479-375.083-99.090v0z"></path>
<path d="M194.352 0h635.296c14.762 0 27.952 12.921 27.952 28.86v382.134c0 16.17-12.515 28.86-27.952 28.86h-635.296c-14.762 0-27.952-12.921-27.952-28.86v-382.134c0-16.17 12.515-28.86 27.952-28.86zM512 294.4l288-256h-60l-228 139.636-228-139.636h-60l288 256z"></path>
</svg>
