<?xml version="1.0" encoding="utf-8"?>
<!-- Generated by IcoMoon.io -->
<!DOCTYPE svg PUBLIC "-//W3C//DTD SVG 1.1//EN" "http://www.w3.org/Graphics/SVG/1.1/DTD/svg11.dtd">
<svg version="1.1" xmlns="http://www.w3.org/2000/svg" xmlns:xlink="http://www.w3.org/1999/xlink" width="1024" height="1024" viewBox="0 0 1024 1024"><g id="icomoon-ignore">
</g>
<path d="M957.721 755.674h-891.441c-33.316-66.802-52.057-142.146-52.057-221.867 0-274.915 222.863-497.778 497.778-497.778s497.778 222.863 497.778 497.778c0 79.721-18.741 155.065-52.057 221.867zM598.275 533.661l329.76-183.649-359.043 119.677c-14.992-13.213-34.594-21.215-56.044-21.215-47.128 0-85.333 38.63-85.333 86.281s38.205 86.281 85.333 86.281c47.128 0 85.333-38.63 85.333-86.281 0-0.365-0.002-0.73-0.007-1.094zM405.6 146.948c-296.285 78.104-296.681 386.859-296.681 386.859h127.093c0 0-3.989-201.674 185.304-265.556s308.496 83.281 308.496 83.281l117.833-41.489c0 0-145.759-241.2-442.044-163.096z"></path>
<path d="M493 880.397c-4.359 3.052-10.357 2.006-13.398-2.336s-1.972-10.336 2.387-13.389c4.359-3.052 10.357-2.006 13.398 2.336s1.972 10.336-2.387 13.389z"></path>
<path d="M536.663 838.201l-46.569 36.888-4.431-6.328z"></path>
<path d="M370.488 957.931v7.847h48.912v-23.317h36.851v25.111c0 4.484-1.601 8.333-4.802 11.546s-7.035 4.82-11.502 4.82h-90.453c-4.318 0-8.040-1.569-11.167-4.708s-4.69-6.876-4.69-11.21v-102.46c0-4.484 1.563-8.295 4.69-11.434s6.849-4.708 11.167-4.708h90.453c4.467 0 8.301 1.607 11.502 4.82s4.802 7.062 4.802 11.546v25.111h-36.851v-23.093h-48.912v90.129zM559.212 965.778v-28.249h-48.912v28.249h48.912zM473.449 935.735c0-4.634 1.601-8.557 4.802-11.771s7.035-4.82 11.502-4.82h69.459v-28.249h-41.782c0 0 25.365-18.16 29.832-18.16h32.497c4.467 0 8.301 1.607 11.502 4.82s4.802 7.062 4.802 11.546v78.471c0 4.484-1.601 8.333-4.802 11.546s-7.035 4.82-11.502 4.82h-90.007c-4.467 0-8.301-1.607-11.502-4.82s-4.802-7.062-4.802-11.546v-31.837zM698.577 942.461h36.851v25.111c0 4.484-1.601 8.333-4.802 11.546s-7.035 4.82-11.502 4.82h-90.007c-4.467 0-8.301-1.607-11.502-4.82s-4.802-7.062-4.802-11.546v-78.471c0-4.484 1.601-8.333 4.802-11.546s7.035-4.82 11.502-4.82h90.007c4.467 0 8.301 1.607 11.502 4.82s4.802 7.062 4.802 11.546v25.111h-36.851v-23.317h-48.912v74.884h48.912v-23.317zM837.049 872.734h20.547c4.467 0 8.301 1.607 11.502 4.82s4.802 7.062 4.802 11.546v94.837h-36.851v-93.044h-48.912v93.044h-36.851v-134.521h36.851v23.317h48.912zM928.396 890.894v28.249h48.912v-28.249h-48.912zM1014.159 920.937c0 4.634-1.601 8.557-4.802 11.771s-7.035 4.82-11.502 4.82h-69.459v28.249h85.763v1.794c0 4.484-1.601 8.333-4.802 11.546s-7.035 4.82-11.502 4.82h-90.007c-4.467 0-8.301-1.607-11.502-4.82s-4.802-7.062-4.802-11.546v-78.471c0-4.484 1.601-8.333 4.802-11.546s7.035-4.82 11.502-4.82h90.007c4.467 0 8.301 1.607 11.502 4.82s4.802 7.062 4.802 11.546v31.837z"></path>
<path d="M430.437 847.49c0 0 24.394-30.817 64.989-26.887 49.798 4.821 63.792 45.12 63.792 45.12s-14.573-46.735-63.2-48.624c-48.628-1.889-65.581 30.391-65.581 30.391z"></path>
<path d="M18.367 865.059v6.261h68.665v0.404c-4.241 5.049-7.876 9.896-11.713 14.743l-62 82.196v4.645h82.196v-6.261h-73.108v-0.404c3.837-4.645 7.472-9.29 11.108-14.137l62-81.994v-5.453h-77.147zM188.413 962.806c-5.857 2.827-13.935 6.866-30.091 6.866-27.264 0-43.218-19.388-43.017-53.316h81.388c0.202-1.010 0.202-2.020 0.202-3.433 0-22.215-9.088-50.287-41.199-50.287-26.456 0-47.662 21.003-47.662 58.567 0 31.505 18.984 54.326 49.277 54.326 19.59 0 30.495-5.453 33.525-7.27l-2.423-5.453zM116.113 910.096c2.020-17.974 13.531-41.805 38.775-41.805 29.082 0 34.332 29.687 34.13 41.805h-72.906zM308.173 908.278c0-41.805-28.88-45.642-37.362-45.642-16.56 0-30.293 8.684-37.968 22.619h-0.404l-0.606-20.196h-6.866c0.606 8.28 0.808 15.147 0.808 24.437v83.812h7.068v-67.655c0-16.762 14.743-36.958 36.352-36.958 23.831 0 31.909 19.388 31.909 40.189v64.424h7.068v-65.030z"></path>
</svg>
