<?xml version="1.0" encoding="utf-8"?>
<!-- Generated by IcoMoon.io -->
<!DOCTYPE svg PUBLIC "-//W3C//DTD SVG 1.1//EN" "http://www.w3.org/Graphics/SVG/1.1/DTD/svg11.dtd">
<svg version="1.1" xmlns="http://www.w3.org/2000/svg" xmlns:xlink="http://www.w3.org/1999/xlink" width="1024" height="1024" viewBox="0 0 1024 1024"><g id="icomoon-ignore">
</g>
<path d="M957.721 847.17h-891.441c-33.316-66.802-52.057-142.146-52.057-221.867 0-274.915 222.863-497.778 497.778-497.778s497.778 222.863 497.778 497.778c0 79.721-18.741 155.065-52.057 221.867zM598.275 625.158l329.76-183.649-359.043 119.677c-14.992-13.213-34.594-21.215-56.044-21.215-47.128 0-85.333 38.63-85.333 86.281s38.205 86.281 85.333 86.281c47.128 0 85.333-38.63 85.333-86.281 0-0.365-0.002-0.73-0.007-1.094zM405.6 238.444c-296.285 78.104-296.681 386.859-296.681 386.859h127.093c0 0-3.989-201.674 185.304-265.556s308.496 83.281 308.496 83.281l117.833-41.489c0 0-145.759-241.2-442.044-163.096z"></path>
</svg>
